HIERARCHY
ROOT Hips
{
	OFFSET -3.958830 18.904000 13.208200
	CHANNELS 6 Xposition Yposition Zposition Zrotation Yrotation Xrotation 
	JOINT LHipJoint
	{
		OFFSET 0.000000 0.000000 0.000000
		CHANNELS 3 Zrotation Yrotation Xrotation
		JOINT LeftUpLeg
		{
			OFFSET 1.800000 -1.400000 0.085000
			CHANNELS 3 Zrotation Yrotation Xrotation
			JOINT LeftLeg
			{
				OFFSET 2.215000 -6.000000 0.000000
				CHANNELS 3 Zrotation Yrotation Xrotation
				JOINT LeftFoot
				{
					OFFSET 2.500000 -6.900000 0.000000
					CHANNELS 3 Zrotation Yrotation Xrotation
					JOINT LeftToeBase
					{
						OFFSET 0.200000 -0.500000 1.950000
						CHANNELS 3 Zrotation Yrotation Xrotation
						End Site
						{
							OFFSET 0.000000 0.000000 0.000000
						}
					}
				}
			}
		}
	}
	JOINT RHipJoint
	{
		OFFSET 0.000000 0.000000 0.000000
		CHANNELS 3 Zrotation Yrotation Xrotation
		JOINT RightUpLeg
		{
			OFFSET -1.800000 -1.400000 0.085000
			CHANNELS 3 Zrotation Yrotation Xrotation
			JOINT RightLeg
			{
				OFFSET -2.215000 -6.000000 0.000000
				CHANNELS 3 Zrotation Yrotation Xrotation
				JOINT RightFoot
				{
					OFFSET -2.500000 -6.900000 0.000000
					CHANNELS 3 Zrotation Yrotation Xrotation
					JOINT RightToeBase
					{
						OFFSET -0.200000 -0.500000 1.950000
						CHANNELS 3 Zrotation Yrotation Xrotation
						End Site
						{
							OFFSET 0.000000 0.000000 0.000000
						}
					}
				}
			}
		}
	}
	JOINT LowerBack
	{
		OFFSET 0.000000 0.000000 0.000000
		CHANNELS 3 Zrotation Yrotation Xrotation
		JOINT Spine
		{
			OFFSET -0.087000 1.940000 -0.288900
			CHANNELS 3 Zrotation Yrotation Xrotation
			JOINT Spine1
			{
				OFFSET 0.000000 1.950000 0.060000
				CHANNELS 3 Zrotation Yrotation Xrotation
				JOINT Neck
				{
					OFFSET 0.000000 0.000000 0.000000
					CHANNELS 3 Zrotation Yrotation Xrotation
					JOINT Neck1
					{
						OFFSET 0.000000 1.600000 0.340000
						CHANNELS 3 Zrotation Yrotation Xrotation
						JOINT Head
						{
							OFFSET 0.000000 1.667000 -0.240000
							CHANNELS 3 Zrotation Yrotation Xrotation
							End Site
							{
								OFFSET 0.000000 0.000000 0.000000
							}
						}
					}
				}
				JOINT LeftShoulder
				{
					OFFSET 0.000000 0.000000 0.000000
					CHANNELS 3 Zrotation Yrotation Xrotation
					JOINT LeftArm
					{
						OFFSET 2.700000 1.550000 -0.730000
						CHANNELS 3 Zrotation Yrotation Xrotation
						JOINT LeftForeArm
						{
							OFFSET 5.450000 0.000000 0.000000
							CHANNELS 3 Zrotation Yrotation Xrotation
							JOINT LeftHand
							{
								OFFSET 3.450000 0.000000 0.000000
								CHANNELS 3 Zrotation Yrotation Xrotation
								JOINT LeftHandIndex1
								{
									OFFSET 0.750000 0.000000 0.000000
									CHANNELS 3 Zrotation Yrotation Xrotation
									End Site
									{
										OFFSET 0.000000 0.000000 0.000000
									}
								}
							}
						}
					}
				}
				JOINT RightShoulder
				{
					OFFSET 0.000000 0.000000 0.000000
					CHANNELS 3 Zrotation Yrotation Xrotation
					JOINT RightArm
					{
						OFFSET -2.700000 1.550000 -0.730000
						CHANNELS 3 Zrotation Yrotation Xrotation
						JOINT RightForeArm
						{
							OFFSET -5.450000 0.000000 0.000000
							CHANNELS 3 Zrotation Yrotation Xrotation
							JOINT RightHand
							{
								OFFSET -3.450000 0.000000 0.000000
								CHANNELS 3 Zrotation Yrotation Xrotation
								JOINT RightHandIndex1
								{
									OFFSET -0.750000 0.000000 0.000000
									CHANNELS 3 Zrotation Yrotation Xrotation
									End Site
									{
										OFFSET 0.000000 0.000000 0.000000
									}
								}
							}
						}
					}
				}
			}
		}
	}
}
MOTION
Frames: 13
Frame Time: 0.016667
-1.797680 16.901210 1.810080 -3.872000 -4.319237 -10.121375 -16.253889 10.111621 7.132842 46.255861 -2.544431 -27.652144 -54.338876 23.775951 23.518515 1.245549 12.615396 0.323230 -0.318820 -0.281590 -0.565260 18.085060 -6.771516 2.631964 -26.128296 6.432863 -28.305325 21.347180 -24.654429 56.255278 -1.855157 -11.419954 0.447261 -0.235260 0.875140 0.301610 -2.050635 -4.947972 -9.868868 -6.770623 4.289170 64.509689 6.294584 3.554302 18.195664 -2.955095 -5.584736 -11.288021 -10.946456 4.869144 26.150220 3.919600 2.625210 -29.349580 -0.193450 -11.833681 5.222444 -26.966540 -14.423017 -12.943467 129.059315 -31.344937 -87.249517 -3.997068 2.677432 0.661560 0.191040 -0.006150 0.144350 4.747735 18.627849 9.801341 34.076089 4.383771 -19.168612 -143.459682 39.481025 -129.485841 1.953828 -1.283628 -0.390730 0.658270 0.620730 0.205290 
-1.771720 17.002550 1.797650 -4.272808 -5.627053 -9.799175 -16.299446 10.377502 7.074343 45.512564 -2.549242 -26.699547 -52.537821 22.731388 22.693383 1.148934 12.398147 0.331017 -0.207700 -0.161960 -0.463920 18.014358 -6.872520 2.446722 -23.938218 6.490901 -27.999532 19.077277 -22.588821 55.469054 -1.764585 -10.882339 0.561489 -0.172690 0.793040 0.319710 -1.893433 -5.243193 -9.757398 -9.033987 4.904555 61.158683 6.720234 3.329987 20.583790 -3.294421 -5.379612 -11.665210 -11.140817 6.079612 27.860133 3.827950 3.785550 -30.359640 1.701217 -14.349491 5.739095 -25.276829 -15.323301 -14.497771 125.898863 -28.925871 -80.168047 -3.945366 2.706272 0.692580 0.143990 0.059460 0.152200 3.254160 21.011404 10.557539 31.689935 6.460931 -19.001066 -140.791243 40.697542 -126.455843 1.963935 -1.278838 -0.352761 0.628880 0.557260 0.185930 
-1.737700 17.138770 1.769150 -5.040321 -7.573788 -9.428455 -16.298650 10.678681 6.955919 44.425126 -2.422579 -25.901610 -49.267157 21.948120 22.893668 1.026818 12.209167 0.340091 -0.162650 -0.126560 -0.425020 17.968526 -7.079642 2.280786 -20.830178 6.883208 -27.620127 16.326458 -20.004000 54.370634 -1.615243 -10.176277 0.755823 -0.152130 0.747420 0.320660 -1.832152 -5.345170 -9.632826 -10.397271 5.011539 58.563697 6.400466 3.219100 21.582936 -3.255762 -5.850294 -12.234081 -12.649082 7.201237 29.754920 3.890250 4.217390 -30.312600 2.262883 -16.720233 6.063492 -22.978903 -15.290909 -16.017999 121.994867 -28.399930 -74.189220 -3.926710 2.693384 0.728120 0.110730 0.088630 0.156020 2.590331 23.634869 11.544597 29.048462 7.210725 -19.028268 -138.734598 41.814890 -124.168014 1.968570 -1.252250 -0.346780 0.612770 0.533330 0.168380 
-1.707380 17.295240 1.737950 -5.846314 -9.364222 -8.902369 -16.258836 11.001752 6.763317 42.661247 -2.380072 -25.498615 -44.949543 20.989610 23.521639 0.892185 11.935358 0.379201 -0.157440 -0.126130 -0.406490 17.940744 -7.354485 2.163667 -17.612401 7.200572 -27.013754 13.713000 -17.408513 52.720013 -1.440334 -9.374965 0.988534 -0.156160 0.719670 0.320570 -1.828761 -5.331851 -9.485963 -11.196372 4.975308 56.190587 5.891115 3.210153 22.042439 -3.127329 -5.988448 -12.919816 -13.479670 8.003879 31.568296 3.776700 4.622720 -29.451070 2.705490 -19.268725 6.395219 -20.909503 -15.181091 -17.573401 117.521816 -28.301974 -68.301344 -3.946307 2.671262 0.740200 0.093570 0.107540 0.147970 2.000278 26.193433 12.568484 28.010607 7.996450 -19.345704 -135.572160 42.562689 -119.630019 2.000242 -1.185729 -0.340800 0.595780 0.524580 0.160460 
-1.681120 17.467330 1.707980 -7.033732 -11.173307 -8.485364 -16.151859 11.326499 6.444745 40.546000 -2.271003 -25.156242 -39.154878 19.948090 25.014516 0.711839 11.560149 0.431351 -0.135810 -0.106550 -0.371110 17.954750 -7.741201 2.123845 -14.100409 7.530137 -25.920708 11.374566 -15.048670 50.765625 -1.286362 -8.587721 1.230786 -0.158170 0.687160 0.345960 -1.957581 -5.046708 -9.298830 -10.983261 4.388593 54.220615 4.525217 3.062428 22.361193 -2.874341 -5.742084 -13.380586 -13.320845 8.776546 33.317576 2.820260 5.369280 -28.450010 2.986411 -21.496993 6.476973 -18.398605 -14.350781 -19.159130 111.928435 -28.816748 -61.995758 -3.998118 2.677691 0.733660 0.094850 0.128510 0.130200 1.391657 28.108318 13.138879 28.087467 10.095838 -19.428038 -131.076008 43.659103 -113.189187 2.034723 -1.078968 -0.306860 0.559170 0.518440 0.151280 
-1.661660 17.633770 1.677760 -8.286322 -12.469013 -7.792692 -16.012387 11.656301 5.977458 37.812850 -2.282767 -25.252380 -32.480739 18.514006 26.777834 0.399349 11.024488 0.547611 -0.149160 -0.141460 -0.353640 17.990161 -8.091929 2.246611 -11.134895 7.816625 -25.392424 10.151524 -13.750215 49.384613 -1.179146 -8.102269 1.414534 -0.149390 0.699450 0.313640 -2.145434 -4.742634 -9.109083 -10.285666 3.475088 52.174572 2.995083 2.675798 22.441845 -2.767552 -5.583028 -13.603313 -13.212013 9.558248 34.531107 2.365730 5.895960 -27.638190 3.643269 -22.632321 6.339673 -16.945048 -14.287689 -19.883077 105.467781 -29.842533 -56.069245 -4.068436 2.596350 0.763170 0.112880 0.099420 0.103750 0.712291 28.763928 13.348951 29.455717 12.508439 -18.761540 -128.023880 45.608833 -110.309735 2.027414 -0.928973 -0.360090 0.599860 0.547120 0.109560 
-1.654230 17.791410 1.646630 -9.565143 -14.006284 -6.803559 -15.859819 11.983086 5.365231 34.793549 -1.870423 -25.383930 -25.377644 16.773198 28.348951 0.174651 10.240605 0.774637 -0.191570 -0.218060 -0.371250 18.037859 -8.316007 2.625018 -8.815391 8.809383 -26.045454 10.724068 -13.921253 49.753014 -1.222326 -8.165140 1.403809 -0.206960 0.697150 0.318150 -2.371347 -4.437671 -9.015642 -9.197705 2.503028 50.020135 1.189608 2.139151 21.248018 -1.984124 -6.017556 -14.859827 -14.906322 11.165429 37.605892 2.761230 6.365210 -24.651520 2.836241 -24.561395 6.889015 -15.688875 -12.367388 -20.612898 99.020267 -31.375196 -50.510390 -4.110550 2.580530 0.782330 0.101950 0.101720 0.095690 0.519602 30.628904 14.222999 30.102311 14.033374 -17.899300 -125.590014 48.705341 -109.625098 2.101455 -0.780862 -0.362210 0.570520 0.560890 0.106080 
-1.649200 17.938160 1.626120 -11.009353 -15.473928 -5.860094 -15.705979 12.243527 4.649762 31.894665 -1.306229 -25.234010 -18.600736 14.794744 29.453222 -0.078083 9.307930 1.041838 -0.152900 -0.198980 -0.346750 18.109810 -8.443289 3.137842 -7.127426 10.216435 -27.239042 13.047014 -15.789410 52.088046 -1.450960 -8.888537 1.177231 -0.201020 0.654390 0.337760 -2.649615 -4.104520 -8.934495 -7.812660 1.276021 47.913942 -0.973934 1.410324 20.387207 -1.329224 -6.492838 -15.518008 -16.477155 12.802029 39.715906 2.459350 7.037320 -23.467320 2.593374 -25.307316 7.081424 -14.953631 -11.526744 -20.534757 92.479137 -31.690214 -44.714756 -4.100307 2.640903 0.814600 0.078710 0.126470 0.101700 -0.137475 31.296579 14.278010 30.897535 16.926286 -16.208913 -122.200356 52.815474 -108.405694 2.144533 -0.616026 -0.345610 0.528300 0.544900 0.090570 
-1.647760 18.072470 1.603040 -12.440298 -16.450030 -5.103819 -15.536387 12.429462 3.878965 28.915508 -0.842488 -25.034923 -12.094398 12.615705 30.217152 -0.342822 8.351765 1.306097 -0.181970 -0.270580 -0.345560 18.207898 -8.550402 3.740348 -6.500630 11.719841 -28.793226 17.517797 -19.746513 55.507018 -1.806783 -10.232450 0.756617 -0.234560 0.639580 0.403290 -3.004383 -3.653540 -8.877095 -5.909246 -0.008724 46.123529 -3.589276 0.719667 19.659706 -0.633414 -6.226083 -16.004146 -16.163936 14.309243 42.052081 1.462170 8.385820 -22.167980 2.252352 -26.365180 7.260390 -13.290270 -10.230342 -20.246368 85.897421 -32.867508 -40.147166 -4.182365 2.675439 0.846350 0.100280 0.127590 0.039900 -0.864919 31.551049 14.063809 32.899824 20.202693 -14.768082 -117.135287 56.005519 -103.468237 2.148066 -0.296765 -0.337270 0.465270 0.616780 0.054170 
-1.647240 18.192930 1.588420 -14.443755 -17.717073 -4.697557 -15.351122 12.471375 3.182411 27.134195 -0.114861 -24.142931 -6.577405 10.737541 30.473119 -0.515149 7.551144 1.567480 -0.202590 -0.305640 -0.323190 18.351490 -8.658715 4.324000 -5.540807 13.433939 -29.861199 22.704282 -25.025126 59.558778 -2.295489 -11.821474 0.324052 -0.250450 0.615280 0.404360 -3.481024 -2.985621 -8.852457 -2.851302 -1.497211 45.225450 -6.445891 0.171952 18.787894 -0.100765 -6.349523 -16.508573 -16.840248 15.790893 44.463354 1.064780 9.373650 -22.881310 1.886383 -27.325591 7.471266 -11.532735 -9.002334 -19.751117 78.832518 -34.035519 -35.689851 -4.197788 2.636796 0.899190 0.079930 0.152880 -0.006460 -1.287457 31.903746 13.816690 34.832674 23.116385 -13.846555 -111.809075 58.479352 -97.248056 2.136413 0.169564 -0.355260 0.479170 0.653850 0.025290 
-1.637300 18.286670 1.578820 -16.271275 -18.874028 -4.353580 -15.144427 12.433406 2.549706 25.298377 0.421851 -23.164697 -1.836109 8.940806 30.333196 -0.654292 6.829871 1.820194 -0.176230 -0.288150 -0.296550 18.523323 -8.835296 4.836994 -4.795977 14.853133 -30.908551 28.086102 -31.092116 63.222272 -2.792985 -13.397385 -0.052836 -0.230910 0.601330 0.402650 -4.051547 -2.173076 -8.789258 0.897062 -3.198482 44.136034 -9.605345 -0.361267 18.347502 0.160345 -6.623663 -16.948562 -17.683863 17.213958 45.643589 1.762840 9.958990 -23.130080 1.802447 -28.412552 7.793765 -10.312067 -8.225715 -19.286924 72.900958 -33.572014 -31.559261 -4.202648 2.656090 0.935190 0.068700 0.163950 -0.019200 -1.538960 32.294805 13.564812 36.556977 25.445926 -13.542062 -107.035359 59.949951 -90.948541 2.044922 0.560336 -0.365420 0.492770 0.662400 0.004560 
-1.635090 18.347230 1.568590 -17.817280 -20.066329 -3.874677 -15.000034 12.427079 2.086637 23.770739 0.854271 -22.342174 1.857708 7.464009 29.675913 -0.693510 6.209630 2.048558 -0.198690 -0.310340 -0.292230 18.634948 -8.927671 5.257184 -4.257218 15.844556 -31.791840 34.054058 -37.965310 65.940603 -3.244027 -14.738852 -0.323833 -0.268510 0.565000 0.377760 -4.443585 -1.654563 -8.770067 3.895768 -4.308751 43.174727 -12.004097 -0.612976 16.823670 0.935716 -6.779901 -18.218579 -19.266962 18.671260 48.677652 1.716300 10.596290 -22.762900 0.375446 -29.868723 8.367842 -9.387876 -7.040323 -18.881316 68.734596 -33.992847 -28.875542 -4.189161 2.625652 0.967960 0.032710 0.191300 -0.043290 -1.482445 33.510742 13.939222 38.033389 26.454665 -14.029120 -102.586364 61.362905 -84.979072 1.958431 0.954638 -0.360440 0.495340 0.668440 -0.003730 
-1.625360 18.392470 1.571200 -19.863043 -21.005190 -3.657156 -14.877366 12.417903 1.749960 23.173610 1.301929 -21.322825 5.030112 6.196250 28.734856 -0.761993 5.794021 2.196393 -0.208260 -0.345520 -0.277410 18.729957 -9.066770 5.503748 -2.835043 16.140926 -31.334756 39.604620 -44.532164 67.327048 -3.566950 -15.608857 -0.489075 -0.291000 0.526180 0.371170 -4.778699 -1.188115 -8.713006 7.572188 -5.578876 42.604944 -14.047637 -0.632676 15.997532 1.712422 -6.753438 -19.239021 -20.475957 19.424068 51.485463 1.082390 10.668680 -22.954230 -0.839284 -31.303613 8.754511 -8.840584 -6.849166 -18.739339 66.099202 -34.654146 -27.663504 -4.185686 2.595759 1.031080 0.000320 0.213370 -0.069590 -1.739445 34.650138 14.301847 38.766922 26.719724 -15.390619 -99.013619 62.320863 -80.393412 1.846607 1.180579 -0.376060 0.493630 0.687960 -0.034830 
